<svg width="28" height="32" viewBox="0 0 28 32" fill="none" xmlns="http://www.w3.org/2000/svg">
<path fill-rule="evenodd" clip-rule="evenodd" d="M2.57513 6.52422C2.65236 10.8403 3.52822 14.3786 4.1364 16.157H8.54121V9.03755C8.54121 8.33062 9.11644 7.75755 9.82603 7.75755H18.1709C18.5113 7.75755 18.8379 7.89215 19.0788 8.13181C19.9278 8.97646 20.9342 10.4696 21.2331 12.2964C21.5451 14.2029 21.0637 16.368 19.0788 18.3428C18.8379 18.5824 18.5113 18.7171 18.1709 18.7171H11.1109V27.9615C11.4962 28.2351 11.9855 28.51 12.5138 28.7634C12.9761 28.9851 13.4295 29.1722 13.8022 29.312C24.3342 22.7869 25.5102 11.7337 24.7358 6.5805C20.4314 2.97907 15.9061 2.18957 11.9164 2.70022C8.06767 3.19284 4.70412 4.90173 2.57513 6.52422ZM8.54121 18.7171V28.5713C8.54121 28.9275 8.69023 29.2677 8.95244 29.5099C9.64367 30.1484 10.5826 30.6783 11.3991 31.07C12.2342 31.4705 13.0454 31.7753 13.5567 31.9388C13.9063 32.0505 14.2872 32.008 14.6033 31.8218C27.1609 24.4247 28.2319 11.3451 27.1905 5.6815C27.1384 5.39792 26.9916 5.14018 26.7741 4.95003C21.7559 0.563007 16.337 -0.446627 11.589 0.161078C6.88998 0.762517 2.86359 2.94096 0.463696 4.92765C0.169932 5.17084 0 5.53162 0 5.91214C0 11.6321 1.34394 16.2499 2.06634 17.9388C2.2682 18.4108 2.73339 18.7171 3.24832 18.7171H8.54121ZM11.1109 16.157H17.6125C18.6921 14.9068 18.8612 13.7119 18.697 12.7083C18.5409 11.7549 18.0676 10.903 17.5975 10.3176H11.1109V16.157Z" fill="white"/>
</svg>
